<?xml version="1.0" encoding="UTF-8"?>
<svg id="WAREHOUSE_R" xmlns="http://www.w3.org/2000/svg" viewBox="0 0 781.86 98.96">
  <defs>
    <style>
    </style>
  </defs>
  <path class="cls-1" d="M249.84,62.33l17.38,32.8c.6,1.13-.22,2.5-1.51,2.5h-7.69c-.62-.02-1.19-.36-1.49-.9l-18.86-34.62c-.3-.55-.87-.89-1.49-.89h-14.76c-.94,0-1.7.76-1.7,1.7v33c0,.94-.76,1.7-1.7,1.7h-6.52c-.94,0-1.7-.76-1.7-1.7V4.3c0-.94.76-1.7,1.7-1.7h31.46c16.46,0,26.99,14.5,26.99,30.65,0,12.08-6.04,21.49-15.58,25.34-1.6.64-2.74,1.06-3.56,1.32-1.01.33-1.47,1.48-.98,2.41ZM219.73,50.01c0,.94.76,1.7,1.7,1.7h21.05c10.77,0,17.55-6.92,17.55-17.64s-6.78-21.83-17.31-21.83h-21.3c-.94,0-1.7.76-1.7,1.7v36.07Z"/>
  <path class="cls-1" d="M299.07,87.97h44.8c.94,0,1.7.76,1.7,1.7v6.23c0,.94-.76,1.7-1.7,1.7h-55.41c-.94,0-1.7-.76-1.7-1.7V4.29c0-.94.76-1.7,1.7-1.7h55.41c.94,0,1.7.76,1.7,1.7v6.23c0,.94-.76,1.7-1.7,1.7h-44.8c-.94,0-1.7.76-1.7,1.7v29.87c0,.94.77,1.7,1.71,1.7l33.64-.12c.94,0,1.71.76,1.71,1.7v6.24c0,.94-.76,1.7-1.69,1.7l-33.66.12c-.94,0-1.69.76-1.69,1.7v29.43c0,.94.76,1.7,1.7,1.7Z"/>
  <path class="cls-1" d="M422.46,2.61h7.08c.94,0,1.7.76,1.7,1.7v91.61c0,.94-.76,1.7-1.7,1.7h-7.08c-.94,0-1.7-.76-1.7-1.7v-39.28c0-.94-.76-1.7-1.7-1.7h-45.28c-.94,0-1.7.76-1.7,1.7v39.28c0,.94-.76,1.7-1.7,1.7h-7.08c-.94,0-1.7-.76-1.7-1.7V4.31c0-.94.76-1.7,1.7-1.7h7.08c.94,0,1.7.76,1.7,1.7v39.28c0,.94.76,1.7,1.7,1.7h45.28c.94,0,1.7-.76,1.7-1.7V4.31c0-.94.76-1.7,1.7-1.7Z"/>
  <path class="cls-1" d="M556.55,60.82V4.29c0-.94.76-1.7,1.7-1.7h7.17c.94,0,1.7.76,1.7,1.7v55.85c0,18.19,9.41,29.05,24.24,29.05s23.85-10.86,23.85-29.05V4.29c0-.94.76-1.7,1.7-1.7h7.17c.94,0,1.7.76,1.7,1.7v56.39c0,23.89-13.41,38.28-34.81,38.28s-34.42-14.39-34.42-38.14Z"/>
  <path class="cls-1" d="M639.72,71.25l6.02-1.87c.89-.27,1.84.21,2.12,1.09,3.73,11.8,12.99,18.3,25.94,18.3s22.37-6.55,22.37-18c0-10.23-7.54-14.59-17.17-16.09l-13.39-2.05c-13.53-2.05-23.93-9.27-23.93-24.68,0-16.91,12.75-27.96,30.95-27.96,16.95,0,26.52,7.91,30.94,20.85.31.9-.16,1.88-1.06,2.19l-6.21,2.08c-.84.28-1.77-.13-2.1-.96-3.67-9.08-11.57-14.61-21.69-14.61-11.71,0-20.68,7.09-20.68,17.18,0,8.32,5.85,13.64,16.26,15.41l13.78,2.18c12.1,1.91,24.71,7.91,24.71,25.5s-12.49,28.5-31.99,28.5-31.59-9.55-35.98-24.96c-.26-.9.23-1.84,1.13-2.12Z"/>
  <path class="cls-1" d="M734.38,87.97h45.77c.94,0,1.7.76,1.7,1.7v6.23c0,.94-.76,1.7-1.7,1.7h-56.33c-.94,0-1.7-.76-1.7-1.7V4.29c0-.94.76-1.7,1.7-1.7h55.55c.94,0,1.7.76,1.7,1.7v6.23c0,.94-.76,1.7-1.7,1.7h-45c-.94,0-1.7.76-1.7,1.7v29.8c0,.94.76,1.7,1.7,1.7h33.74c.94,0,1.7.76,1.7,1.7v6.24c0,.94-.76,1.7-1.7,1.7h-33.74c-.94,0-1.7.76-1.7,1.7v29.5c0,.94.76,1.7,1.7,1.7Z"/>
  <path class="cls-1" d="M445.61,50.01c0-28.31,20.33-48.67,48.57-48.67s48.43,20.36,48.43,48.67-20.33,48.53-48.43,48.53-48.57-20.36-48.57-48.53ZM531.03,50.01c0-22.78-15.25-39.1-36.85-39.1s-36.99,16.31-36.99,39.1,15.39,38.96,36.99,38.96,36.85-16.31,36.85-38.96Z"/>
  <path class="cls-1" d="M117.97,2.61h6.66c1.11,0,1.93,1.05,1.65,2.13l-23.81,91.61c-.19.75-.87,1.27-1.65,1.27h-14.12c-.78,0-1.46-.53-1.65-1.28l-20.07-79.25c-.43-1.71-2.87-1.71-3.3,0l-19.92,79.25c-.19.76-.87,1.29-1.65,1.29h-13.98c-.77,0-1.45-.52-1.65-1.27L.57,4.74c-.28-1.08.53-2.13,1.65-2.13h7.13c.78,0,1.45.53,1.65,1.28l20.38,79.47c.44,1.71,2.86,1.7,3.3,0L54.82,3.89c.19-.75.87-1.28,1.65-1.28h14.01c.78,0,1.46.53,1.65,1.29l19.79,79.4c.43,1.71,2.84,1.72,3.29.03L116.32,3.88c.2-.75.87-1.26,1.64-1.26Z"/>
  <path class="cls-1" d="M184.56,96.36l-5.43-20.01c-.2-.74-.87-1.26-1.64-1.26h-31.4c-.77,0-1.44.51-1.64,1.26l-5.43,20.01c-.2.74-.87,1.26-1.64,1.26h-6.91c-1.11,0-1.93-1.05-1.65-2.13L152.65,3.88c.19-.75.87-1.27,1.65-1.27h14.15c.77,0,1.44.52,1.64,1.26l24.76,91.61c.29,1.08-.52,2.14-1.64,2.14h-7.01c-.77,0-1.44-.51-1.64-1.26ZM159.81,16.14l-12.26,47.46c-.28,1.08.53,2.13,1.65,2.13h25.04c1.12,0,1.93-1.06,1.64-2.14l-12.78-47.46c-.45-1.69-2.85-1.67-3.29.02Z"/>
</svg>